<?xml version="1.0" encoding="UTF-8" standalone="no"?><!DOCTYPE svg PUBLIC "-//W3C//DTD SVG 1.1//EN" "http://www.w3.org/Graphics/SVG/1.1/DTD/svg11.dtd"><svg width="100%" height="100%" viewBox="0 0 128 128" version="1.1" xmlns="http://www.w3.org/2000/svg" xmlns:xlink="http://www.w3.org/1999/xlink" xml:space="preserve" xmlns:serif="http://www.serif.com/" style="fill-rule:evenodd;clip-rule:evenodd;stroke-linejoin:round;stroke-miterlimit:2;"><rect id="ArtBoard1" x="0" y="0" width="128" height="128" style="fill:none;"/><rect x="21.599" y="75.509" width="40.664" height="10.726" style="fill:#334142;fill-rule:nonzero;"/><rect x="65.274" y="74.559" width="40.038" height="5.238" style="fill:#334142;fill-rule:nonzero;"/><path d="M118.085,77.933l-0.005,0c-0.016,-4.202 -3.426,-7.605 -7.633,-7.605l-5.135,0l-36.241,0c-4.217,0 -7.634,3.418 -7.634,7.635l34.038,0c0,-2.108 1.708,-3.816 3.818,-3.816l6.019,0l0,4.797c2.828,-0.023 5.135,2.263 5.135,5.091l0,1.534c4.207,0 7.617,-3.402 7.633,-7.606l0.005,0l-0.002,-0.015l0.002,-0.015Z" style="fill:#24bfff;fill-rule:nonzero;"/><path d="M106.266,78.064c2.923,0.458 5.135,2.96 5.135,5.971l0,0.511c3.217,-0.463 5.709,-3.236 5.725,-6.579l-0.004,-0.069l0.019,-0.347c-0.145,-3.397 -3.097,-6.268 -6.694,-6.268l-41.376,0c-3.36,0 -6.148,2.492 -6.614,5.726l32.159,0c0.443,-2.175 2.372,-3.816 4.677,-3.816l6.973,0l0,4.871Zm4.181,8.459l-0.954,0l0,-2.488c0,-2.28 -1.855,-4.137 -4.135,-4.137l-0.954,0l-0.046,-0.954l0,-3.843l-5.065,0c-1.58,0 -2.864,1.284 -2.864,2.862l0,0.954l-35.946,0l0,-0.954c0,-4.736 3.852,-8.589 8.588,-8.589l41.376,0c4.618,0 8.407,3.681 8.583,8.261l0.032,0.05l-0.03,0.349l-0.013,-0.002c-0.134,4.782 -3.937,8.491 -8.572,8.491Z" style="fill-rule:nonzero;"/><path d="M112.065,117.617l0,-21.039l8.679,0l0,12.361c0,4.793 -3.886,8.678 -8.679,8.678Z" style="fill:#e09a85;fill-rule:nonzero;"/><path d="M69.882,78.734c2.407,-0.002 4.561,1.097 5.984,2.822c0,0 -3.448,3.744 -3.448,5.618l1.458,7.072l-18.418,0c-4.289,0 -7.766,-3.477 -7.766,-7.768l0,-7.746l22.19,0.002Z" style="fill:#00b8ac;fill-rule:nonzero;"/><path d="M48.646,79.686l0,6.792c0,3.755 3.055,6.814 6.812,6.814l17.247,0l-1.241,-6.118c0,-1.731 2.017,-4.322 3.114,-5.604c-1.259,-1.204 -2.929,-1.882 -4.69,-1.882l-21.242,-0.002Zm26.4,15.514l-19.588,0c-4.808,0 -8.72,-3.914 -8.72,-8.722l0,-8.7l23.144,0.002c2.613,0 5.059,1.154 6.719,3.168l0.531,0.641l-0.563,0.612c-1.258,1.367 -3.101,3.822 -3.193,4.893l1.67,8.106Z" style="fill:#0a1d23;fill-rule:nonzero;"/><path d="M109.249,81.012c-1.706,-1.704 -4.006,-2.45 -6.231,-2.236c0,0 -0.208,5.085 -1.534,6.41l-3.206,6.795l10.203,10.205c3.034,3.034 7.952,3.034 10.986,0l5.476,-5.477l-15.694,-15.697Z" style="fill:#18979e;fill-rule:nonzero;"/><path d="M99.427,91.782l9.73,9.73c2.574,2.572 7.058,2.576 9.636,0l4.801,-4.803l-15.021,-15.021c-1.248,-1.248 -2.897,-1.954 -4.654,-1.992c-0.126,1.624 -0.51,4.713 -1.634,6.026l-2.858,6.06Zm14.548,13.633c-2.33,0 -4.52,-0.907 -6.167,-2.554l-10.68,-10.68l3.682,-7.671c0.726,-0.723 1.178,-3.873 1.254,-5.774l0.035,-0.83l0.828,-0.08c2.604,-0.239 5.154,0.671 6.995,2.513l16.371,16.37l-6.151,6.152c-1.648,1.647 -3.837,2.554 -6.167,2.554Z" style="fill:#0a1d23;fill-rule:nonzero;"/><path d="M103.524,78.757l-17.477,0l-8.541,0l-8.484,8.484l0,30.376l43.043,0l0,-30.319c0,-4.715 -3.824,-8.541 -8.541,-8.541Z" style="fill:#00b8ac;fill-rule:nonzero;"/><path d="M69.976,116.663l41.135,0l0,-29.363c0,-4.185 -3.404,-7.589 -7.587,-7.589l-25.623,0l-7.925,7.925l0,29.027Zm43.043,1.909l-44.951,0l0,-31.726l9.043,-9.043l26.413,0c5.236,0 9.495,4.261 9.495,9.497l0,31.272Z" style="fill:#0a1d23;fill-rule:nonzero;"/><path d="M89.63,86.636l-4.524,0.754l-4.868,-2.075l-2.732,-4.833l0,-1.208l17.355,0.01l-0.859,2.349l-1.576,3.1l-2.796,1.903Z" style="fill:#fff;fill-rule:nonzero;"/><path d="M77.506,78.757l-9.102,0c-4.718,0 -8.544,3.824 -8.544,8.541l0,30.319l9.162,0l0,-30.376l8.484,-8.484Z" style="fill:#61e8cf;fill-rule:nonzero;"/><path d="M60.815,116.663l7.253,0l0,-29.817l7.134,-7.135l-6.798,0c-4.185,0 -7.589,3.404 -7.589,7.589l0,29.363Zm9.161,1.909l-11.07,0l0,-31.272c0,-5.236 4.261,-9.497 9.498,-9.497l11.405,0l-9.833,9.833l0,30.936Z" style="fill:#0a1d23;fill-rule:nonzero;"/><path d="M86.024,85.004c-3.473,0 -6.286,-2.812 -6.286,-6.283l0,-9.673l12.57,0l0,9.673c0,3.471 -2.815,6.283 -6.284,6.283Z" style="fill:#e09a85;fill-rule:nonzero;"/><path d="M86.024,31.061c-9.425,0 -17.088,7.664 -17.088,17.088l0,4.33c0,2.496 2.023,4.519 4.518,4.519l25.137,0c2.496,0 4.519,-2.023 4.519,-4.519l0,-4.33c0,-9.424 -7.665,-17.088 -17.086,-17.088Zm0,4.519c6.94,0 12.567,5.627 12.567,12.569l0,4.33l-25.137,0l0,-4.33c0,-6.942 5.628,-12.569 12.57,-12.569Z" style="fill:#334142;fill-rule:nonzero;"/><rect x="73.454" y="48.149" width="12.569" height="6.284" style="fill:#f9b59d;fill-rule:nonzero;"/><path d="M86.024,35.58c-6.942,0 -12.57,5.627 -12.57,12.569l25.137,0c0,-6.942 -5.627,-12.569 -12.567,-12.569Z" style="fill:#f9b59d;fill-rule:nonzero;"/><path d="M85.938,37.981c-5.925,0 -10.942,3.862 -12.688,9.201c2.363,0 4.712,-0.788 6.404,-2.437c1.658,-1.614 3.883,-2.639 6.284,-2.639c2.387,0 4.589,1.013 6.232,2.614c1.704,1.657 4.061,2.462 6.436,2.462l0.02,0c-1.748,-5.339 -6.763,-9.201 -12.688,-9.201Z" style="fill:#334142;fill-rule:nonzero;"/><path d="M72.42,46.713l2.635,0l8.849,-7.626l4.614,0.422l9.461,7.438l1.835,0l-3.341,-9.837l-10.449,-3.156l-8.616,1.626l-4.66,7.98l-0.328,3.153Z" style="fill:#334142;fill-rule:nonzero;"/><path d="M75.527,101.491c1.078,0 1.952,-0.876 1.952,-1.954c0,-1.078 -0.874,-1.954 -1.952,-1.954c-1.082,0 -1.954,0.876 -1.954,1.954c0,1.078 0.872,1.954 1.954,1.954Z" style="fill:#18979e;fill-rule:nonzero;"/><path d="M75.527,97.583c1.078,0 1.952,0.876 1.952,1.954c0,1.078 -0.874,1.954 -1.952,1.954c-1.082,0 -1.954,-0.876 -1.954,-1.954c0,-1.078 0.872,-1.954 1.954,-1.954Zm0,6.166c2.32,0 4.211,-1.889 4.211,-4.212c0,-2.322 -1.891,-4.213 -4.211,-4.213c-2.324,0 -4.213,1.891 -4.213,4.213c0,2.323 1.889,4.212 4.213,4.212Z" style="fill:#fff;fill-rule:nonzero;"/><rect x="91.338" y="95.324" width="15.439" height="15.525" style="fill:#fff;fill-rule:nonzero;"/><path d="M92.292,109.895l13.531,0l0,-13.617l-13.531,0l0,13.617Zm15.44,1.908l-17.348,0l0,-17.433l17.348,0l0,17.433Z" style="fill:#0a1d23;fill-rule:nonzero;"/><rect x="91.886" y="95.872" width="14.371" height="3.339" style="fill:#18979e;fill-rule:nonzero;"/><path d="M98.591,48.149c0,-0.328 -0.025,-0.648 -0.049,-0.969c-2.353,-0.015 -4.683,-0.819 -6.372,-2.46c-1.643,-1.601 -3.845,-2.614 -6.232,-2.614c-2.401,0 -4.626,1.025 -6.284,2.639c-1.631,1.59 -3.877,2.374 -6.152,2.427c-0.023,0.323 -0.048,0.647 -0.048,0.977l0,16.543c0,6.94 5.628,12.567 12.57,12.567c6.94,0 12.567,-5.627 12.567,-12.567l0,-16.543Z" style="fill:#f9b59d;fill-rule:nonzero;"/><path d="M74.409,48.071l0,16.621c0,6.402 5.209,11.613 11.615,11.613c6.402,0 11.613,-5.211 11.613,-11.613l0,-16.543l0,-0.057c-2.385,-0.198 -4.536,-1.137 -6.131,-2.689c-3.116,-3.034 -8.062,-3.018 -11.188,0.027c-1.524,1.485 -3.599,2.408 -5.909,2.641Zm11.615,30.142c-7.457,0 -13.524,-6.066 -13.524,-13.521l0,-16.543c0,-0.355 0.025,-0.702 0.05,-1.047l0.065,-0.861l0.864,-0.023c2.179,-0.053 4.135,-0.818 5.509,-2.156c1.928,-1.876 4.395,-2.91 6.95,-2.91c2.538,0 4.988,1.025 6.898,2.885c1.437,1.397 3.465,2.174 5.711,2.189l0.88,0.006l0.067,0.877c0.027,0.344 0.051,0.687 0.051,1.04l0,16.543c0,7.455 -6.066,13.521 -13.521,13.521Z" style="fill:#0a1d23;fill-rule:nonzero;"/><path d="M86.024,70.905c-2.588,0 -4.692,-2.107 -4.692,-4.694l1.908,0c0,1.536 1.248,2.785 2.784,2.785c1.532,0 2.782,-1.249 2.782,-2.785l1.908,0c0,2.587 -2.105,4.694 -4.69,4.694Z" style="fill:#0a1d23;fill-rule:nonzero;"/><path d="M87.892,73.238c0,1.079 -0.876,1.954 -1.954,1.954c-1.08,0 -1.954,-0.875 -1.954,-1.954c0,-1.078 0.874,-1.954 1.954,-1.954c1.078,0 1.954,0.876 1.954,1.954Z" style="fill:#e09a85;fill-rule:nonzero;"/><path d="M79.738,52.479c-1.078,0 -1.954,0.872 -1.954,1.954c0,1.078 0.876,1.952 1.954,1.952c1.078,0 1.954,-0.874 1.954,-1.952c0,-1.082 -0.876,-1.954 -1.954,-1.954Z" style="fill:#0a1d23;fill-rule:nonzero;"/><path d="M92.308,52.479c-1.08,0 -1.954,0.872 -1.954,1.954c0,1.078 0.874,1.952 1.954,1.952c1.078,0 1.952,-0.874 1.952,-1.952c0,-1.082 -0.874,-1.954 -1.952,-1.954Z" style="fill:#0a1d23;fill-rule:nonzero;"/><path d="M79.738,48.149c-2.788,0 -5.146,1.817 -5.969,4.33c1.113,0 2.221,-0.376 3.021,-1.151c0.779,-0.759 1.822,-1.24 2.948,-1.24c1.13,0 2.177,0.483 2.958,1.244c0.798,0.775 1.902,1.147 3.015,1.147c-0.823,-2.513 -3.183,-4.33 -5.973,-4.33Z" style="fill:#0a1d23;fill-rule:nonzero;"/><path d="M92.308,48.149c-2.788,0 -5.151,1.817 -5.971,4.33c1.11,0 2.217,-0.372 3.013,-1.147c0.78,-0.761 1.828,-1.244 2.958,-1.244c1.12,0 2.16,0.477 2.932,1.231c0.802,0.78 1.912,1.16 3.031,1.16l0.007,0c-0.822,-2.513 -3.183,-4.33 -5.97,-4.33Z" style="fill:#0a1d23;fill-rule:nonzero;"/><rect x="85.07" y="54.433" width="1.908" height="10.749" style="fill:#0a1d23;fill-rule:nonzero;"/><path d="M79.654,59.08c-2.568,0 -4.648,-2.082 -4.648,-4.647c0,-0.851 0.229,-1.649 0.628,-2.334c0.425,-0.187 0.818,-0.442 1.156,-0.771c0.779,-0.759 1.822,-1.24 2.948,-1.24c1.13,0 2.177,0.483 2.958,1.244c0.271,0.264 0.58,0.481 0.91,0.653c0.441,0.712 0.695,1.549 0.695,2.448c0,2.565 -2.078,4.647 -4.647,4.647Zm0.084,-6.601c-1.078,0 -1.954,0.872 -1.954,1.954c0,1.078 0.876,1.952 1.954,1.952c1.078,0 1.954,-0.874 1.954,-1.952c0,-1.082 -0.876,-1.954 -1.954,-1.954Z" style="fill:#f8f2db;fill-rule:nonzero;"/><path d="M79.738,56.385c-1.078,0 -1.954,-0.874 -1.954,-1.952c0,-1.082 0.876,-1.954 1.954,-1.954c1.078,0 1.954,0.872 1.954,1.954c0,1.078 -0.876,1.952 -1.954,1.952Z" style="fill:#073438;fill-rule:nonzero;"/><path d="M75.634,52.099c0.803,-1.385 2.303,-2.316 4.02,-2.316c1.67,0 3.134,0.881 3.952,2.202c-0.33,-0.172 -0.639,-0.389 -0.91,-0.653c-0.781,-0.761 -1.828,-1.244 -2.958,-1.244c-1.126,0 -2.169,0.481 -2.948,1.24c-0.338,0.329 -0.731,0.584 -1.156,0.771Z" style="fill:#073438;fill-rule:nonzero;"/><path d="M92.224,59.08c-2.569,0 -4.651,-2.082 -4.651,-4.647c0,-0.851 0.229,-1.647 0.628,-2.334c0.422,-0.185 0.813,-0.44 1.149,-0.767c0.78,-0.761 1.828,-1.244 2.958,-1.244c1.12,0 2.16,0.477 2.932,1.231c0.279,0.273 0.596,0.496 0.937,0.672c0.439,0.709 0.693,1.545 0.693,2.442c0,2.565 -2.082,4.647 -4.646,4.647Zm0.084,-6.601c-1.08,0 -1.954,0.872 -1.954,1.954c0,1.078 0.874,1.952 1.954,1.952c1.078,0 1.952,-0.874 1.952,-1.952c0,-1.082 -0.874,-1.954 -1.952,-1.954Z" style="fill:#f8f2db;fill-rule:nonzero;"/><path d="M92.308,56.385c-1.08,0 -1.954,-0.874 -1.954,-1.952c0,-1.082 0.874,-1.954 1.954,-1.954c1.078,0 1.952,0.872 1.952,1.954c0,1.078 -0.874,1.952 -1.952,1.952Z" style="fill:#073438;fill-rule:nonzero;"/><path d="M88.201,52.099c0.803,-1.385 2.305,-2.316 4.023,-2.316c1.669,0 3.135,0.883 3.953,2.208c-0.341,-0.176 -0.658,-0.399 -0.937,-0.672c-0.772,-0.754 -1.812,-1.231 -2.932,-1.231c-1.13,0 -2.178,0.483 -2.958,1.244c-0.336,0.327 -0.727,0.582 -1.149,0.767Z" style="fill:#073438;fill-rule:nonzero;"/><path d="M92.308,58.568c-2.281,0 -4.134,-1.857 -4.134,-4.135c0,-2.282 1.853,-4.135 4.134,-4.135c2.28,0 4.135,1.853 4.135,4.135c0,2.278 -1.855,4.135 -4.135,4.135Zm-12.57,0c-2.28,0 -4.133,-1.857 -4.133,-4.135c0,-2.282 1.853,-4.135 4.133,-4.135c2.28,0 4.135,1.853 4.135,4.135c0,2.278 -1.855,4.135 -4.135,4.135Zm19.496,-4.65l-1.818,0c-0.26,-2.601 -2.439,-4.647 -5.108,-4.647c-2.672,0 -4.847,2.046 -5.111,4.647l-2.349,0c-0.261,-2.601 -2.44,-4.647 -5.11,-4.647c-2.671,0 -4.847,2.046 -5.11,4.647l-1.378,0l0,1.028l1.378,0c0.263,2.603 2.439,4.649 5.11,4.649c2.67,0 4.849,-2.046 5.11,-4.649l2.349,0c0.264,2.603 2.439,4.649 5.111,4.649c2.669,0 4.848,-2.046 5.108,-4.649l1.818,0l0,-1.028Z" style="fill:#0a1d23;fill-rule:nonzero;"/><path d="M86.047,88.22c-5.214,0 -9.473,-4.244 -9.495,-9.459l1.908,-0.008c0.019,4.166 3.421,7.559 7.587,7.559c4.167,0 7.571,-3.393 7.589,-7.559l1.908,0.008c-0.021,5.215 -4.28,9.459 -9.497,9.459Z" style="fill:#0a1d23;fill-rule:nonzero;"/><path d="M14.052,81.419c-4.778,0 -8.652,3.874 -8.652,8.654l0,0.822c0,4.73 3.836,8.564 8.564,8.564l0,-9.386l0.088,-8.654Z" style="fill:#f9b59d;fill-rule:nonzero;"/><path d="M13.087,82.432c-3.79,0.477 -6.733,3.721 -6.733,7.641l0,0.822c0,3.874 2.909,7.079 6.656,7.551l0.077,-16.014Zm1.831,17.981l-0.954,0c-5.249,0 -9.518,-4.269 -9.518,-9.518l0,-0.822c0,-5.298 4.311,-9.608 9.606,-9.608l0.964,0l-0.098,19.948Z" style="fill-rule:nonzero;"/><rect x="26.377" y="90.246" width="28.613" height="27.259" style="fill:#334142;fill-rule:nonzero;"/><rect x="26.377" y="114.662" width="28.613" height="2.843" style="fill:#34595f;fill-rule:nonzero;"/><rect x="26.377" y="108.977" width="28.613" height="2.843" style="fill:#34595f;fill-rule:nonzero;"/><rect x="26.377" y="103.291" width="28.613" height="2.841" style="fill:#34595f;fill-rule:nonzero;"/><rect x="26.377" y="97.606" width="28.613" height="2.841" style="fill:#34595f;fill-rule:nonzero;"/><rect x="26.377" y="91.92" width="28.613" height="2.841" style="fill:#34595f;fill-rule:nonzero;"/><rect x="39.731" y="57.656" width="1.908" height="12.214" style="fill-rule:nonzero;"/><rect x="17.941" y="78.242" width="3.587" height="40.04" style="fill:#334142;fill-rule:nonzero;"/><path d="M27.331,116.551l26.706,0l0,-25.351l-26.706,0l0,25.351Zm28.614,1.908l-30.522,0l0,-29.167l30.522,0l0,29.167Z" style="fill-rule:nonzero;"/><path d="M40.756,27.556c5.976,0 11.258,-3.002 14.443,-7.57c-3.509,-4.076 -8.679,-6.684 -14.478,-6.684c-5.784,0 -10.934,2.589 -14.445,6.64c3.181,4.593 8.482,7.614 14.48,7.614Z" style="fill:#24bfff;fill-rule:nonzero;"/><path d="M51.064,52.662c-0.897,0 -1.622,-0.727 -1.622,-1.624c0,-0.895 0.725,-1.622 1.622,-1.622c0.897,0 1.624,0.727 1.624,1.622c0,0.897 -0.727,1.624 -1.624,1.624Zm-20.617,0c-0.896,0 -1.623,-0.727 -1.623,-1.624c0,-0.895 0.727,-1.622 1.623,-1.622c0.895,0 1.622,0.727 1.622,1.622c0,0.897 -0.727,1.624 -1.622,1.624Zm24.13,-7.096c-0.519,0.419 -1.016,0.814 -1.294,1.038c-1.462,0.524 -3.198,0.292 -4.486,-1.027l-1.525,-1.559c-0.813,-0.834 -1.754,-1.45 -2.75,-1.904c-1.196,-0.546 -2.477,-0.848 -3.766,-0.853l-0.071,0c-1.292,0.005 -2.572,0.307 -3.769,0.853c-0.994,0.454 -1.937,1.07 -2.749,1.904l-1.525,1.559c-0.527,0.54 -1.134,0.903 -1.763,1.101c-0.903,0.288 -1.853,0.235 -2.716,-0.07c-0.257,-0.21 -0.769,-0.624 -1.303,-1.058c-0.59,-0.477 -1.208,-0.975 -1.551,-1.253l0,8.877c0.477,0.645 1,1.253 1.551,1.835c3.486,3.67 8.396,5.975 13.861,5.975c5.461,0 10.371,-2.305 13.856,-5.975c0.551,-0.582 1.076,-1.19 1.553,-1.835l0,-8.851c-0.405,0.325 -0.994,0.796 -1.553,1.243Z" style="fill:#24bfff;fill-rule:nonzero;"/><path d="M54.052,34.538c-2.235,-0.914 -4.675,-0.404 -6.362,1.323l-1.527,1.562c-1.444,1.477 -3.377,2.292 -5.442,2.292c-2.066,0 -4.001,-0.815 -5.446,-2.292l-1.524,-1.562c-1.689,-1.727 -4.124,-2.237 -6.364,-1.323c-2.239,0.912 -3.628,2.977 -3.628,5.395l0,10.766c0.456,0.864 0.975,1.692 1.55,2.475l0,-8.877l0,-4.364c0,-3.834 4.656,-5.729 7.333,-2.987l1.525,1.559c1.788,1.83 4.152,2.746 6.518,2.756l0.071,0c2.364,-0.01 4.73,-0.926 6.516,-2.756l1.525,-1.559c2.677,-2.742 7.333,-0.847 7.333,2.987l0,13.241c0.574,-0.783 1.093,-1.609 1.549,-2.473l0,-10.768c0,-2.418 -1.389,-4.483 -3.627,-5.395Z" style="fill-rule:nonzero;"/><path d="M57.113,22.595c-0.287,-0.475 -0.59,-0.943 -0.916,-1.389c-3.483,4.78 -9.11,7.9 -15.476,7.9c-6.369,0 -11.997,-3.12 -15.479,-7.9c-0.315,0.431 -0.607,0.877 -0.887,1.337c-1.762,2.891 -2.792,6.28 -2.792,9.915l0,9.371c0,3.206 0.799,6.217 2.196,8.87l0,-10.766c0,-2.418 1.389,-4.483 3.628,-5.395c2.24,-0.914 4.675,-0.404 6.364,1.323l1.524,1.562c1.445,1.477 3.38,2.292 5.446,2.292c2.065,0 3.998,-0.815 5.442,-2.292l1.527,-1.562c1.687,-1.727 4.127,-2.237 6.362,-1.323c2.238,0.912 3.627,2.977 3.627,5.395l0,10.768c1.397,-2.653 2.197,-5.666 2.197,-8.872l0,-9.371c0,-3.614 -1.019,-6.98 -2.763,-9.863Z" style="fill:#8addff;fill-rule:nonzero;"/><path d="M40.721,29.106c6.366,0 11.993,-3.12 15.476,-7.9c-0.309,-0.426 -0.657,-0.821 -0.998,-1.22c-3.185,4.568 -8.467,7.57 -14.443,7.57c-5.998,0 -11.299,-3.021 -14.48,-7.614c-0.355,0.411 -0.714,0.821 -1.034,1.264c3.482,4.78 9.11,7.9 15.479,7.9Z" style="fill-rule:nonzero;"/><path d="M30.447,39.179c-1.578,0 -2.858,1.28 -2.858,2.858l1.549,0c0,-0.721 0.588,-1.309 1.309,-1.309c0.722,0 1.308,0.588 1.308,1.309l1.551,0c0,-1.578 -1.282,-2.858 -2.859,-2.858Z" style="fill:#fff;fill-rule:nonzero;"/><path d="M51.064,39.179c-1.577,0 -2.861,1.28 -2.861,2.858l1.554,0c0,-0.721 0.587,-1.309 1.307,-1.309c0.719,0 1.309,0.588 1.309,1.309l1.549,0c0,-1.578 -1.28,-2.858 -2.858,-2.858Z" style="fill:#fff;fill-rule:nonzero;"/><path d="M31.755,42.037c0,-0.721 -0.586,-1.309 -1.308,-1.309c-0.721,0 -1.309,0.588 -1.309,1.309l-1.549,0c0,-1.578 1.28,-2.858 2.858,-2.858c1.577,0 2.859,1.28 2.859,2.858l-1.551,0Zm0.887,-5.091c-2.677,-2.742 -7.333,-0.847 -7.333,2.987l0,4.364c0.343,0.278 0.961,0.776 1.551,1.253c0.534,0.434 1.046,0.848 1.303,1.058c0.863,0.305 1.813,0.358 2.716,0.07c0.629,-0.198 1.236,-0.561 1.763,-1.101l1.525,-1.559c0.812,-0.834 1.755,-1.45 2.749,-1.904c1.197,-0.546 2.477,-0.848 3.769,-0.853c-2.366,-0.01 -4.73,-0.926 -6.518,-2.756l-1.525,-1.559Z" style="fill:#334142;fill-rule:nonzero;"/><path d="M52.373,42.037c0,-0.721 -0.59,-1.309 -1.309,-1.309c-0.72,0 -1.307,0.588 -1.307,1.309l-1.554,0c0,-1.578 1.284,-2.858 2.861,-2.858c1.578,0 2.858,1.28 2.858,2.858l-1.549,0Zm-3.576,-5.091l-1.525,1.559c-1.786,1.83 -4.152,2.746 -6.516,2.756c1.289,0.005 2.57,0.307 3.766,0.853c0.996,0.454 1.937,1.07 2.75,1.904l1.525,1.559c1.288,1.319 3.024,1.551 4.486,1.027c0.278,-0.224 0.775,-0.619 1.294,-1.038c0.559,-0.447 1.148,-0.918 1.553,-1.243l0,-4.39c0,-3.834 -4.656,-5.729 -7.333,-2.987Z" style="fill:#334142;fill-rule:nonzero;"/><path d="M30.447,49.416c-0.896,0 -1.623,0.727 -1.623,1.622c0,0.897 0.727,1.624 1.623,1.624c0.895,0 1.622,-0.727 1.622,-1.624c0,-0.895 -0.727,-1.622 -1.622,-1.622Z" style="fill:#334142;fill-rule:nonzero;"/><path d="M51.064,49.416c-0.897,0 -1.622,0.727 -1.622,1.622c0,0.897 0.725,1.624 1.622,1.624c0.897,0 1.624,-0.727 1.624,-1.624c0,-0.895 -0.727,-1.622 -1.624,-1.622Z" style="fill:#334142;fill-rule:nonzero;"/><path d="M40.685,14.256c-5.246,0 -10.247,2.299 -13.724,6.31c-0.374,0.432 -0.694,0.802 -0.983,1.201c-0.299,0.41 -0.578,0.837 -0.843,1.272c-1.736,2.847 -2.652,6.105 -2.652,9.419l0,9.371c0,2.962 0.702,5.796 2.085,8.425c0.435,0.826 0.933,1.618 1.473,2.353c0.43,0.578 0.911,1.149 1.475,1.742c3.477,3.664 8.154,5.681 13.169,5.681c5.011,0 9.686,-2.015 13.165,-5.679c0.572,-0.603 1.055,-1.174 1.477,-1.744c0.543,-0.737 1.04,-1.529 1.473,-2.353c1.383,-2.627 2.085,-5.463 2.085,-8.425l0,-9.371c0,-3.29 -0.908,-6.53 -2.623,-9.369c-0.275,-0.452 -0.561,-0.897 -0.872,-1.321c-0.258,-0.354 -0.541,-0.685 -0.825,-1.015l-0.126,-0.147c-3.475,-4.034 -8.489,-6.35 -13.754,-6.35Zm0,47.682c-5.543,0 -10.711,-2.229 -14.552,-6.274c-0.618,-0.651 -1.153,-1.281 -1.628,-1.925c-0.597,-0.81 -1.143,-1.684 -1.626,-2.596c-1.53,-2.906 -2.305,-6.039 -2.305,-9.314l0,-9.371c0,-3.665 1.014,-7.264 2.931,-10.411c0.292,-0.483 0.601,-0.954 0.932,-1.404c0.316,-0.439 0.673,-0.851 1.026,-1.262c3.895,-4.493 9.423,-7.033 15.222,-7.033c5.82,0 11.361,2.557 15.203,7.016l0.126,0.147c0.316,0.368 0.631,0.74 0.919,1.134c0.34,0.467 0.661,0.959 0.962,1.456c1.897,3.139 2.899,6.72 2.899,10.357l0,9.371c0,3.275 -0.775,6.41 -2.306,9.314c-0.479,0.911 -1.026,1.783 -1.627,2.596c-0.468,0.635 -1,1.267 -1.628,1.925c-3.843,4.045 -9.009,6.274 -14.548,6.274Z" style="fill-rule:nonzero;"/><path d="M27.589,75.465l-2.208,0l0,6.471c0,2.089 -1.692,3.78 -3.782,3.78l0,21.952l4.418,0c2.345,0 4.408,-1.131 5.734,-2.855l0,-31.185c-1.038,1.124 -2.511,1.837 -4.162,1.837Z" style="fill:#24bfff;fill-rule:nonzero;"/><path d="M40.754,79.854c-3.095,0 -5.832,-1.57 -7.45,-3.957l0,24.226c0.135,-3.786 2.925,-7.118 6.717,-7.48c4.297,-0.41 7.928,2.826 8.186,6.972l0,-23.718c-1.62,2.387 -4.356,3.957 -7.453,3.957Z" style="fill:#24bfff;fill-rule:nonzero;"/><path d="M40.754,78.303c4.11,0 7.453,-3.343 7.453,-7.454l0,-4.526l-14.903,0l0,4.526c0,4.111 3.343,7.454 7.45,7.454Z" style="fill:#24bfff;fill-rule:nonzero;"/><path d="M56.13,81.936l0,-6.471l-2.208,0c-1.65,0 -3.124,-0.713 -4.164,-1.837l0,31.185c1.327,1.724 3.389,2.855 5.735,2.855l4.417,0l0,-21.952c-2.089,0 -3.78,-1.691 -3.78,-3.78Z" style="fill:#24bfff;fill-rule:nonzero;"/><path d="M48.234,69.777l0,-3.454l-0.027,0l0,4.526c0,4.111 -3.343,7.454 -7.453,7.454c-4.107,0 -7.45,-3.343 -7.45,-7.454l0,-4.526l-0.027,0l0,3.454c0,1.49 -0.586,2.837 -1.526,3.851l0,31.185c0.942,-1.227 1.526,-2.742 1.526,-4.406l0.027,-0.284l0,-24.226c1.618,2.387 4.355,3.957 7.45,3.957c3.097,0 5.833,-1.57 7.453,-3.957l0,23.718l0.027,0.474l0,0.318c0,1.664 0.582,3.181 1.524,4.406l0,-31.185c-0.938,-1.014 -1.524,-2.359 -1.524,-3.851Z" style="fill-rule:nonzero;"/><path d="M40.683,91.654c4.437,0 8.131,3.471 8.406,7.902c0.017,0.258 0.026,0.392 0.026,0.533l0,0.318c0,1.374 0.458,2.697 1.328,3.824c1.214,1.577 3.029,2.483 4.979,2.483l3.463,0l0,-20.141c-2.156,-0.441 -3.78,-2.353 -3.78,-4.637l0,-5.517l-1.253,0c-1.857,0 -3.586,-0.761 -4.866,-2.143c-1.147,-1.238 -1.779,-2.837 -1.779,-4.499l0,-2.5l-13.046,0l0,2.5c0,1.662 -0.632,3.261 -1.781,4.499c-1.276,1.382 -3.005,2.143 -4.864,2.143l-1.253,0l0,5.517c0,2.284 -1.624,4.196 -3.78,4.637l0,20.141l3.463,0c1.95,0 3.765,-0.906 4.978,-2.483c0.869,-1.129 1.329,-2.452 1.329,-3.824l0.019,-0.265c0.166,-4.442 3.425,-8.052 7.585,-8.449c0.278,-0.027 0.553,-0.039 0.826,-0.039Zm20.111,16.968l-5.372,0c-2.546,0 -4.914,-1.175 -6.492,-3.227c-1.127,-1.465 -1.723,-3.188 -1.723,-4.988l0,-0.318l-0.013,-0.279c-0.239,-3.784 -3.448,-6.576 -7.154,-6.217c-3.213,0.306 -5.73,3.13 -5.854,6.566l-0.019,0.218c-0.006,1.828 -0.602,3.551 -1.729,5.018c-1.578,2.052 -3.946,3.227 -6.492,3.227l-5.372,0l0,-23.86l0.955,0c1.557,0 2.826,-1.269 2.826,-2.826l0,-7.425l3.161,0c1.321,0 2.554,-0.544 3.464,-1.53c0.822,-0.886 1.273,-2.025 1.273,-3.204l0,-4.408l16.838,0l0.024,4.408c0,1.179 0.451,2.318 1.273,3.202c0.912,0.988 2.143,1.532 3.464,1.532l3.161,0l0,7.425c0,1.557 1.269,2.826 2.826,2.826l0.955,0l0,23.86Z" style="fill-rule:nonzero;"/><path d="M29.822,92.372c0,1.57 -1.273,2.843 -2.844,2.843c-1.57,0 -2.843,-1.273 -2.843,-2.843c0,-1.57 1.273,-2.843 2.843,-2.843c1.571,0 2.844,1.273 2.844,2.843Z" style="fill:#334142;fill-rule:nonzero;"/><path d="M13.894,81.264l0,32.423c0,2.108 1.708,3.818 3.818,3.818l0,-6.021c0,-2.106 1.708,-3.816 3.817,-3.816l0,-34.04c-4.218,0 -7.635,3.419 -7.635,7.636Z" style="fill:#24bfff;fill-rule:nonzero;"/><path d="M20.574,74.649c-3.232,0.467 -5.726,3.255 -5.726,6.615l0,32.423c0,1.246 0.798,2.307 1.91,2.7l0,-4.903c0,-2.303 1.641,-4.232 3.816,-4.675l0,-32.16Zm-1.908,43.81l-0.954,0c-2.631,0 -4.772,-2.141 -4.772,-4.772l0,-32.423c0,-4.736 3.852,-8.59 8.589,-8.59l0.954,0l0,35.948l-0.954,0c-1.579,0 -2.863,1.284 -2.863,2.862l0,6.975Z" style="fill-rule:nonzero;"/><path d="M4.227,18.671l0.006,0.006l-0.004,-0.006l-0.002,0Z" style="fill:#f9b59d;fill-rule:nonzero;"/></svg>